<svg width="16" height="16" viewBox="0 0 19 19" fill="none" xmlns="http://www.w3.org/2000/svg">
<path d="M9.94574 0.95871C9.74731 0.961811 9.55823 1.04351 9.41997 1.18588C9.28172 1.32824 9.2056 1.51965 9.20832 1.71808V4.71458C9.20691 4.81384 9.22525 4.9124 9.26227 5.00452C9.29929 5.09664 9.35424 5.18048 9.42395 5.25118C9.49365 5.32187 9.57671 5.37801 9.66829 5.41632C9.75988 5.45464 9.85817 5.47437 9.95744 5.47437C10.0567 5.47437 10.155 5.45464 10.2466 5.41632C10.3382 5.37801 10.4212 5.32187 10.4909 5.25118C10.5606 5.18048 10.6156 5.09664 10.6526 5.00452C10.6896 4.9124 10.708 4.81384 10.7066 4.71458V1.71808C10.7079 1.61785 10.6892 1.51837 10.6514 1.42552C10.6137 1.33268 10.5576 1.24835 10.4867 1.17754C10.4157 1.10674 10.3313 1.05088 10.2384 1.01329C10.1455 0.975706 10.046 0.957144 9.94574 0.95871ZM14.0893 2.06338C13.9549 2.06243 13.8228 2.09766 13.7067 2.16536C13.5906 2.23306 13.4948 2.33075 13.4295 2.44818L11.9312 5.04232C11.8773 5.1276 11.8412 5.22289 11.825 5.32247C11.8088 5.42205 11.8129 5.52387 11.8371 5.62182C11.8612 5.71978 11.9049 5.81185 11.9655 5.89252C12.0261 5.97318 12.1023 6.04078 12.1897 6.09126C12.277 6.14174 12.3737 6.17405 12.4738 6.18627C12.574 6.19848 12.6755 6.19035 12.7725 6.16235C12.8694 6.13435 12.9596 6.08707 13.0378 6.02333C13.116 5.9596 13.1806 5.88072 13.2275 5.79144L14.7258 3.19731C14.7936 3.08407 14.8302 2.95494 14.8321 2.82298C14.8339 2.69103 14.8009 2.56093 14.7363 2.44585C14.6717 2.33077 14.5778 2.23479 14.4642 2.16763C14.3506 2.10047 14.2213 2.0645 14.0893 2.06338ZM5.8036 2.06484C5.67373 2.06985 5.5474 2.10856 5.43701 2.17717C5.32663 2.24578 5.23599 2.34192 5.174 2.45616C5.11201 2.57039 5.08081 2.69879 5.08346 2.82873C5.0861 2.95867 5.1225 3.08569 5.18909 3.19731L6.68734 5.79144C6.73431 5.88072 6.79884 5.9596 6.87704 6.02333C6.95524 6.08707 7.04551 6.13435 7.14244 6.16235C7.23936 6.19035 7.34094 6.19848 7.44108 6.18627C7.54122 6.17405 7.63787 6.14174 7.72521 6.09126C7.81256 6.04078 7.88882 5.97318 7.94941 5.89252C8.00999 5.81185 8.05366 5.71978 8.0778 5.62182C8.10194 5.52387 8.10604 5.42205 8.08987 5.32247C8.07369 5.22289 8.03757 5.1276 7.98367 5.04232L6.48542 2.44818C6.41812 2.32768 6.31883 2.22811 6.19851 2.16047C6.0782 2.09282 5.94154 2.05973 5.8036 2.06484ZM2.84076 5.08329C2.81587 5.08253 2.79097 5.08302 2.76614 5.08475C2.60463 5.09482 2.45073 5.15692 2.32746 5.26174C2.20418 5.36656 2.11816 5.50848 2.08226 5.66626C2.04635 5.82404 2.0625 5.98921 2.12828 6.13705C2.19405 6.28489 2.30593 6.40747 2.44717 6.48643L5.04131 7.98468C5.12659 8.03858 5.22188 8.0747 5.32146 8.09087C5.42104 8.10705 5.52286 8.10294 5.62082 8.07881C5.71877 8.05467 5.81084 8.011 5.89151 7.95041C5.97218 7.88983 6.03977 7.81357 6.09025 7.72622C6.14073 7.63887 6.17305 7.54223 6.18526 7.44209C6.19748 7.34194 6.18934 7.24036 6.16134 7.14344C6.13335 7.04652 6.08606 6.95625 6.02233 6.87805C5.95859 6.79985 5.87972 6.73532 5.79044 6.68834L3.1963 5.19009C3.08862 5.12523 2.96635 5.0885 2.84076 5.08329ZM17.1268 5.08475C16.9835 5.08007 16.8418 5.11663 16.7186 5.19009L14.1245 6.68834C14.0352 6.73532 13.9563 6.79985 13.8926 6.87805C13.8288 6.95625 13.7815 7.04652 13.7535 7.14344C13.7255 7.24036 13.7174 7.34194 13.7296 7.44209C13.7418 7.54223 13.7742 7.63887 13.8246 7.72622C13.8751 7.81357 13.9427 7.88983 14.0234 7.95041C14.104 8.011 14.1961 8.05467 14.2941 8.07881C14.392 8.10294 14.4938 8.10705 14.5934 8.09087C14.693 8.0747 14.7883 8.03858 14.8736 7.98468L17.4677 6.48643C17.6101 6.40632 17.7224 6.28187 17.7875 6.13203C17.8526 5.98219 17.8669 5.81517 17.8283 5.65643C17.7897 5.49768 17.7003 5.35591 17.5736 5.2527C17.447 5.1495 17.2901 5.09052 17.1268 5.08475ZM1.71707 9.20933C1.6178 9.20792 1.51924 9.22626 1.42713 9.26328C1.33501 9.30029 1.25116 9.35525 1.18047 9.42495C1.10978 9.49466 1.05364 9.57771 1.01532 9.6693C0.977007 9.76088 0.957275 9.85917 0.957275 9.95845C0.957275 10.0577 0.977007 10.156 1.01532 10.2476C1.05364 10.3392 1.10978 10.4222 1.18047 10.4919C1.25116 10.5616 1.33501 10.6166 1.42713 10.6536C1.51924 10.6906 1.6178 10.709 1.71707 10.7076H4.71357C4.81284 10.709 4.91139 10.6906 5.00351 10.6536C5.09563 10.6166 5.17947 10.5616 5.25017 10.4919C5.32086 10.4222 5.377 10.3392 5.41532 10.2476C5.45363 10.156 5.47336 10.0577 5.47336 9.95845C5.47336 9.85917 5.45363 9.76088 5.41532 9.6693C5.377 9.57771 5.32086 9.49466 5.25017 9.42495C5.17947 9.35525 5.09563 9.30029 5.00351 9.26328C4.91139 9.22626 4.81284 9.20792 4.71357 9.20933H1.71707ZM15.2013 9.20933C15.102 9.20792 15.0035 9.22626 14.9114 9.26328C14.8193 9.30029 14.7354 9.35525 14.6647 9.42495C14.594 9.49466 14.5379 9.57771 14.4996 9.6693C14.4613 9.76088 14.4415 9.85917 14.4415 9.95845C14.4415 10.0577 14.4613 10.156 14.4996 10.2476C14.5379 10.3392 14.594 10.4222 14.6647 10.4919C14.7354 10.5616 14.8193 10.6166 14.9114 10.6536C15.0035 10.6906 15.102 10.709 15.2013 10.7076H18.1978C18.2971 10.709 18.3956 10.6906 18.4878 10.6536C18.5799 10.6166 18.6637 10.5616 18.7344 10.4919C18.8051 10.4222 18.8612 10.3392 18.8996 10.2476C18.9379 10.156 18.9576 10.0577 18.9576 9.95845C18.9576 9.85917 18.9379 9.76088 18.8996 9.6693C18.8612 9.57771 18.8051 9.49466 18.7344 9.42495C18.6637 9.35525 18.5799 9.30029 18.4878 9.26328C18.3956 9.22626 18.2971 9.20792 18.1978 9.20933H15.2013ZM14.518 11.8254C14.4932 11.8247 14.4682 11.8251 14.4434 11.8269C14.2819 11.8369 14.128 11.899 14.0047 12.0039C13.8815 12.1087 13.7954 12.2506 13.7595 12.4084C13.7236 12.5662 13.7398 12.7313 13.8056 12.8792C13.8713 13.027 13.9832 13.1496 14.1245 13.2286L16.7186 14.7268C16.8039 14.7807 16.8992 14.8168 16.9987 14.833C17.0983 14.8492 17.2001 14.8451 17.2981 14.8209C17.396 14.7968 17.4881 14.7531 17.5688 14.6925C17.6495 14.632 17.7171 14.5557 17.7675 14.4683C17.818 14.381 17.8503 14.2844 17.8625 14.1842C17.8748 14.0841 17.8666 13.9825 17.8386 13.8856C17.8106 13.7886 17.7633 13.6984 17.6996 13.6202C17.6359 13.542 17.557 13.4774 17.4677 13.4305L14.8736 11.9322C14.7659 11.8674 14.6436 11.8306 14.518 11.8254ZM5.44953 11.8269C5.30618 11.8222 5.16449 11.8588 5.04131 11.9322L2.44717 13.4305C2.35789 13.4774 2.27902 13.542 2.21528 13.6202C2.15155 13.6984 2.10426 13.7886 2.07627 13.8856C2.04827 13.9825 2.04013 14.0841 2.05235 14.1842C2.06456 14.2844 2.09688 14.381 2.14736 14.4683C2.19783 14.5557 2.26543 14.632 2.3461 14.6925C2.42677 14.7531 2.51884 14.7968 2.61679 14.8209C2.71475 14.8451 2.81657 14.8492 2.91615 14.833C3.01573 14.8168 3.11102 14.7807 3.1963 14.7268L5.79044 13.2286C5.93282 13.1484 6.04512 13.024 6.11022 12.8742C6.17532 12.7243 6.18966 12.5573 6.15105 12.3985C6.11244 12.2398 6.023 12.098 5.89635 11.9948C5.76971 11.8916 5.6128 11.8326 5.44953 11.8269ZM7.34721 13.7407C7.21282 13.7397 7.08065 13.7749 6.96455 13.8426C6.84845 13.9103 6.7527 14.008 6.68734 14.1255L5.18909 16.7196C5.13519 16.8049 5.09907 16.9002 5.0829 16.9997C5.06672 17.0993 5.07083 17.2011 5.09496 17.2991C5.1191 17.3971 5.16277 17.4891 5.22336 17.5698C5.28395 17.6505 5.3602 17.7181 5.44755 17.7685C5.5349 17.819 5.63154 17.8513 5.73168 17.8635C5.83183 17.8758 5.93341 17.8676 6.03033 17.8396C6.12725 17.8116 6.21752 17.7643 6.29572 17.7006C6.37392 17.6369 6.43845 17.558 6.48542 17.4687L7.98367 14.8746C8.05145 14.7613 8.08811 14.6322 8.08995 14.5003C8.09178 14.3683 8.05873 14.2382 7.99414 14.1231C7.92955 14.008 7.8357 13.9121 7.7221 13.8449C7.6085 13.7777 7.47918 13.7418 7.34721 13.7407ZM12.5457 13.7421C12.4159 13.7471 12.2895 13.7858 12.1791 13.8544C12.0688 13.9231 11.9781 14.0192 11.9161 14.1334C11.8541 14.2477 11.8229 14.3761 11.8256 14.506C11.8282 14.6359 11.8646 14.763 11.9312 14.8746L13.4295 17.4687C13.4764 17.558 13.541 17.6369 13.6192 17.7006C13.6974 17.7643 13.7876 17.8116 13.8846 17.8396C13.9815 17.8676 14.0831 17.8758 14.1832 17.8635C14.2833 17.8513 14.38 17.819 14.4673 17.7685C14.5547 17.7181 14.6309 17.6505 14.6915 17.5698C14.7521 17.4891 14.7958 17.3971 14.8199 17.2991C14.8441 17.2011 14.8482 17.0993 14.832 16.9997C14.8158 16.9002 14.7797 16.8049 14.7258 16.7196L13.2275 14.1255C13.1602 14.005 13.061 13.9054 12.9406 13.8377C12.8203 13.7701 12.6837 13.737 12.5457 13.7421ZM9.94574 14.443C9.74731 14.4461 9.55823 14.5278 9.41997 14.6701C9.28172 14.8125 9.2056 15.0039 9.20832 15.2023V18.1988C9.20691 18.2981 9.22525 18.3966 9.26227 18.4888C9.29929 18.5809 9.35424 18.6647 9.42395 18.7354C9.49365 18.8061 9.57671 18.8623 9.66829 18.9006C9.75988 18.9389 9.85817 18.9586 9.95744 18.9586C10.0567 18.9586 10.155 18.9389 10.2466 18.9006C10.3382 18.8623 10.4212 18.8061 10.4909 18.7354C10.5606 18.6647 10.6156 18.5809 10.6526 18.4888C10.6896 18.3966 10.708 18.2981 10.7066 18.1988V15.2023C10.7079 15.1021 10.6892 15.0026 10.6514 14.9098C10.6137 14.8169 10.5576 14.7326 10.4867 14.6618C10.4157 14.591 10.3313 14.5351 10.2384 14.4975C10.1455 14.46 10.046 14.4414 9.94574 14.443Z" fill="#9BC0D9"/>
</svg>
